<?xml version="1.0" standalone="no"?><!DOCTYPE svg PUBLIC "-//W3C//DTD SVG 1.1//EN" "http://www.w3.org/Graphics/SVG/1.1/DTD/svg11.dtd"><svg t="1752594414345" class="icon" viewBox="0 0 1024 1024" version="1.1" xmlns="http://www.w3.org/2000/svg" p-id="10528" xmlns:xlink="http://www.w3.org/1999/xlink" width="200" height="200"><path d="M676.50144 20.874532a73.02362 73.02362 0 0 1 102.233068 0l3.651181 3.505134 1.022331 1.02233a73.02362 73.02362 0 0 1-1.022331 103.255399L404.123338 499.690408l377.970257 370.813943a73.02362 73.02362 0 0 1 0 104.277729l-3.651181 3.578157a73.02362 73.02362 0 0 1-102.233068 0L248.510003 558.766517l-3.651181-3.066992-3.651181-3.651181a73.02362 73.02362 0 0 1-16.35729-24.243842A73.02362 73.02362 0 0 1 240.915547 447.113402l3.651181-3.578157c2.482803-2.336756 5.03863-4.527464 7.740504-6.572126z" fill="#FFFFFF" p-id="10529"></path></svg>