<?xml version="1.0" encoding="utf-8"?>
<svg version="1.1" xmlns:xlink="http://www.w3.org/1999/xlink" width="16px" height="16px" xmlns="http://www.w3.org/2000/svg">
  <g transform="matrix(1 0 0 1 -255 -8 )">
    <path d="M 8.38095238095238 15.2380952380952  C 7.12941261228623 15.2399795323523  5.89685092270723 14.932166292398  4.79314285714286 14.3420952380952  L 0.761904761904762 15.2380952380952  L 1.65790476190476 11.2068571428571  C 1.06783370760204 10.1031490772928  0.760020467647719 8.87058738771377  0.761904761904762 7.61904761904762  C 0.761904761904762 3.41104761904762  4.17295238095238 0  8.38095238095238 0  C 12.5889523809524 0  16 3.41104761904762  16 7.61904761904762  C 16 11.8270476190476  12.5889523809524 15.2380952380952  8.38095238095238 15.2380952380952  Z M 2.7687619047619 13.2312380952381  L 5.01409523809524 12.7321904761905  L 5.51161904761905 12.9988571428571  C 6.39432392201924 13.4705822274546  7.3801086920087 13.7163740222024  8.38095238095238 13.7142857142857  C 11.7472594275401 13.7142857142857  14.4761904761905 10.9853546656353  14.4761904761905 7.61904761904762  C 14.4761904761905 4.25274057245993  11.7472594275401 1.52380952380952  8.38095238095238 1.52380952380952  C 5.01464533436469 1.52380952380952  2.28571428571429 4.25274057245993  2.28571428571429 7.61904761904762  C 2.28571428571429 8.63542857142857  2.53333333333333 9.61371428571429  3.00190476190476 10.488380952381  L 3.26780952380952 10.9859047619048  L 2.7687619047619 13.2312380952381  Z " fill-rule="nonzero" fill="#999999" stroke="none" fill-opacity="0.988235294117647" transform="matrix(1 0 0 1 255 8 )" />
  </g>
</svg>